trial_2_ID.mot
nRows=11
nColumns=42

name trial_2_ID.mot
datacolumns 42
datarows 11
range 4.1900000000 4.2900000000
endheader
time	pelvis_tilt_moment	pelvis_list_moment	pelvis_rotation_moment	pelvis_tx_force	pelvis_ty_force	pelvis_tz_force	hip_flexion_r_moment	hip_adduction_r_moment	hip_rotation_r_moment	knee_angle_r_moment	knee_vv_r_moment	knee_rot_r_moment	ankle_angle_r_moment	subtalar_angle_r_moment	mtp_angle_r_moment	hip_flexion_l_moment	hip_adduction_l_moment	hip_rotation_l_moment	knee_angle_l_moment	knee_vv_l_moment	knee_rot_l_moment	ankle_angle_l_moment	subtalar_angle_l_moment	mtp_angle_l_moment	lumbar_extension_moment	lumbar_bending_moment	lumbar_rotation_moment	arm_flex_r_moment	arm_add_r_moment	arm_rot_r_moment	elbow_flex_r_moment	pro_sup_r_moment	wrist_flex_r_moment	wrist_dev_r_moment	arm_flex_l_moment	arm_add_l_moment	arm_rot_l_moment	elbow_flex_l_moment	pro_sup_l_moment	wrist_flex_l_moment	wrist_dev_l_moment
        4.1900000000	       -8.8073192800	        6.6854943000	       -3.0464978800	      -23.2220547000	      -14.6164900300	       -7.3659807200	      -16.4298673100	        5.8504104200	       -1.7095696200	       -9.2957251500	        4.3449894900	       -1.0158939800	        5.0650078500	       -0.6406319800	        0.0216583100	        8.7664042700	      -44.1239297800	       -4.0956316600	      -26.5447928400	       20.9951888100	        6.3791039300	      -75.6899272300	        9.3333429900	        0.0272607200	       21.4961243700	        2.2145924200	        2.4539915900	        0.4573518400	       -1.8157797300	       -0.0391173000	       -0.1215353500	       -0.0168080100	       -0.0547637500	       -0.0273105400	       -1.3400794100	       -1.2520223500	        0.1723376500	       -0.1062872500	        0.0190899000	        0.0400219000	        0.0708345200	
        4.2000000000	       -8.3857817200	        7.1741474500	       -3.2765865700	      -24.1207469000	       -8.8214462200	       -7.8383610100	      -15.7327611400	        6.4174922600	       -1.9919954700	       -7.3192795200	        4.8260881700	       -1.2616145800	        5.6925719800	       -0.7110382600	        0.0281883600	        9.2619645600	      -42.3227518000	       -3.8344596400	      -26.2223890600	       20.1293666800	        6.0448326900	      -74.9658147100	        9.3398965600	        0.0258724000	       22.0565334300	        1.3297304600	        2.0660701000	        0.3293358800	       -1.7822566600	       -0.0450368700	       -0.1389976300	       -0.0164259500	       -0.0509406400	       -0.0246923100	       -1.4228534400	       -1.2316446700	        0.2025309100	       -0.0958822900	        0.0224835200	        0.0463873000	        0.0701370600	
        4.2100000000	       -7.8579724800	        7.2928211800	       -3.5876224700	      -24.9542530200	       -4.2251231800	       -7.5567714500	      -15.2076061600	        6.1867955000	       -2.2785619300	       -5.1001590000	        4.9211697500	       -1.5281224600	        6.1497323800	       -0.7053611700	        0.0345767200	        9.7809658200	      -40.2086810400	       -3.4697610700	      -25.3733869300	       19.0524967500	        5.6188339500	      -73.5150396100	        9.2895435700	        0.0238462100	       22.6317071300	        0.3976783700	        1.7275276400	        0.2060012700	       -1.7633321800	       -0.0527508500	       -0.1590214500	       -0.0162984000	       -0.0473997000	       -0.0218119200	       -1.5009857800	       -1.2270616500	        0.2228404200	       -0.0841502600	        0.0255097000	        0.0511865100	        0.0676079100	
        4.2200000000	       -7.3086278700	        7.0839359100	       -3.8784768600	      -25.6669900500	       -1.2487758400	       -6.6842629900	      -14.9494894700	        5.2847275400	       -2.5255318000	       -2.7092734100	        4.6623360100	       -1.7934106600	        6.3788630900	       -0.6029540600	        0.0403463900	       10.3061542800	      -37.6900132800	       -3.0066846100	      -23.9533815400	       17.7365433400	        5.1040943300	      -71.2927222600	        9.1608955700	        0.0213171900	       23.1593227400	       -0.5566249900	        1.4671496600	        0.0926662700	       -1.7626375500	       -0.0620693100	       -0.1815210900	       -0.0164213300	       -0.0442871000	       -0.0187129400	       -1.5610713500	       -1.2534283100	        0.2275744700	       -0.0731542800	        0.0276980700	        0.0531423800	        0.0629993300	
        4.2300000000	       -6.7547465000	        6.5932267900	       -4.0276753100	      -26.1129003800	        0.1758936900	       -5.3701562100	      -14.9082392500	        3.8772744000	       -2.6952784000	       -0.1921689100	        4.1040032200	       -2.0384463600	        6.3650556300	       -0.4009989000	        0.0451583000	       10.8169417900	      -34.6789168300	       -2.4608734500	      -21.9485870400	       16.1629380600	        4.5090907700	      -68.2669195900	        8.9320711700	        0.0185826800	       23.5425592300	       -1.5007500900	        1.3052651200	       -0.0069418900	       -1.7812106100	       -0.0725601200	       -0.2061340000	       -0.0167353200	       -0.0416503900	       -0.0154421500	       -1.5883702000	       -1.3237730600	        0.2129464500	       -0.0646746300	        0.0285761100	        0.0511552800	        0.0561944900	
        4.2400000000	       -6.1300560900	        5.8200201400	       -3.9248402200	      -25.9848870800	        0.6134611400	       -3.6922240500	      -14.8905456100	        2.0924857100	       -2.7609133900	        2.4456537600	        3.2926886100	       -2.2518025900	        6.1308144200	       -0.1134080000	        0.0488248600	       11.2955305200	      -31.1141810400	       -1.8606762200	      -19.3859712800	       14.3277823900	        3.8487528300	      -64.4246313200	        8.5848258700	        0.0161105000	       23.6643347000	       -2.3995898300	        1.2483589500	       -0.0908952700	       -1.8167585100	       -0.0835553800	       -0.2320064000	       -0.0171329500	       -0.0394290400	       -0.0120691500	       -1.5685718500	       -1.4451349400	        0.1781831700	       -0.0594872200	        0.0277436600	        0.0445693700	        0.0472166500	
        4.2500000000	       -5.4899955400	        4.7304857100	       -3.5229122400	      -25.0353298100	        0.8233756200	       -1.6734337900	      -14.7905097500	       -0.0143303800	       -2.7069922600	        5.1538901000	        2.2540467600	       -2.4311572700	        5.7175016500	        0.2352344600	        0.0512734200	       11.7327740700	      -26.9879306100	       -1.2478737300	      -16.3413363100	       12.2478161800	        3.1448444900	      -59.7798369900	        8.1090763000	        0.0145122900	       23.4104951100	       -3.2186816800	        1.2879834300	       -0.1582452000	       -1.8637328100	       -0.0942123800	       -0.2576022700	       -0.0174830700	       -0.0374878500	       -0.0087122800	       -1.4902832000	       -1.6155300300	        0.1259359400	       -0.0570233600	        0.0249478400	        0.0333740400	        0.0362409800	
        4.2600000000	       -5.0183475900	        3.3127168000	       -2.8375453600	      -23.1148022900	        1.5926778600	        0.6404858400	      -14.5566795400	       -2.4465921600	       -2.5288440300	        7.8578434400	        0.9972736700	       -2.5811264500	        5.1685343700	        0.6173530300	        0.0525118100	       12.0472290600	      -22.3733773900	       -0.6757742500	      -12.9760391500	        9.9668419000	        2.4256766500	      -54.3839113500	        7.5066780700	        0.0144808300	       22.6996513500	       -3.9268437700	        1.4047205500	       -0.2078063200	       -1.9144018800	       -0.1036265300	       -0.2807294300	       -0.0176630300	       -0.0356846800	       -0.0055502700	       -1.3482256400	       -1.8228818900	        0.0618221800	       -0.0556377400	        0.0201435800	        0.0182823700	        0.0236168800	
        4.2700000000	       -5.0053617600	        1.6349351200	       -1.9394200800	      -20.2436040600	        3.5061752500	        3.1083419200	      -14.1944850500	       -5.2272777000	       -2.2333022000	       10.4654916200	       -0.4700447000	       -2.7098750700	        4.5164277100	        1.0089203400	        0.0526005000	       12.0643808300	      -17.4342574800	       -0.2031024600	       -9.5431701300	        7.5597726600	        1.7244724500	      -48.3374715000	        6.7939210000	        0.0166503300	       21.5094868600	       -4.4998789300	        1.5750711700	       -0.2376156000	       -1.9605730600	       -0.1109680800	       -0.2989155700	       -0.0175829100	       -0.0339348500	       -0.0027971100	       -1.1464370800	       -2.0464992100	       -0.0067755200	       -0.0534291500	        0.0135270900	        0.0006646500	        0.0098962000	
        4.2800000000	       -5.5552608300	       -0.1308323400	       -0.9530696900	      -16.3443368600	        6.7311005900	        5.4560883100	      -13.7501983900	       -8.3582397100	       -1.8391310500	       12.8796864400	       -2.1273271400	       -2.8254756200	        3.7761060200	        1.3935608700	        0.0516379200	       11.7380132400	      -12.4171549200	        0.1175302600	       -6.2835405800	        5.1341167700	        1.0757109800	      -41.7963940800	        6.0014309200	        0.0214135500	       19.8863857500	       -4.9253006400	        1.7775414000	       -0.2456863700	       -1.9952381000	       -0.1156006200	       -0.3100508600	       -0.0171900800	       -0.0322307400	       -0.0006385400	       -0.8999755700	       -2.2609204200	       -0.0723121300	       -0.0492297700	        0.0055312800	       -0.0176516200	       -0.0041587300	
        4.2900000000	       -6.7698576300	       -1.7137401200	       -0.0254632300	      -11.5926307500	       10.9955252900	        7.2863279700	      -13.2892501500	      -11.7969081500	       -1.3749160200	       15.0106801200	       -3.9343459000	       -2.9329829700	        2.9446053900	        1.7642560300	        0.0497561700	       10.9781369500	       -7.6351985600	        0.2530709200	       -3.4628991700	        2.8246503400	        0.5115035400	      -34.9734445100	        5.1702712000	        0.0287789300	       17.9335236600	       -5.2059598200	        1.9950063800	       -0.2317366800	       -2.0135568900	       -0.1171492100	       -0.3130322200	       -0.0164560000	       -0.0306037100	        0.0008445300	       -0.6335628000	       -2.4412211000	       -0.1286514100	       -0.0432342600	       -0.0032250900	       -0.0346798100	       -0.0176242900	
